<svg width="20" height="20" viewBox="0 0 20 20" fill="none" xmlns="http://www.w3.org/2000/svg">
<path d="M10 6.25C9.25836 6.25 8.53333 6.46993 7.91665 6.88199C7.29996 7.29404 6.81932 7.87971 6.53549 8.56494C6.25166 9.25016 6.1774 10.0042 6.32209 10.7316C6.46679 11.459 6.82394 12.1272 7.34839 12.6517C7.87283 13.1761 8.54102 13.5333 9.26845 13.6779C9.99588 13.8226 10.7499 13.7484 11.4351 13.4645C12.1203 13.1807 12.706 12.7001 13.118 12.0834C13.5301 11.4667 13.75 10.7417 13.75 10C13.749 9.00576 13.3536 8.05253 12.6505 7.34949C11.9475 6.64645 10.9943 6.25103 10 6.25ZM10 12.5C9.50558 12.5 9.02223 12.3534 8.61111 12.0787C8.19999 11.804 7.87956 11.4135 7.69034 10.9567C7.50112 10.4999 7.45161 9.99723 7.54807 9.51227C7.64454 9.02732 7.88264 8.58186 8.23227 8.23223C8.5819 7.8826 9.02736 7.6445 9.51231 7.54804C9.99726 7.45157 10.4999 7.50108 10.9567 7.6903C11.4136 7.87952 11.804 8.19995 12.0787 8.61107C12.3534 9.0222 12.5 9.50555 12.5 10C12.5 10.663 12.2366 11.2989 11.7678 11.7678C11.299 12.2366 10.6631 12.5 10 12.5ZM16.875 10.1688C16.8782 10.0563 16.8782 9.94375 16.875 9.83125L18.0407 8.375C18.1018 8.29854 18.1441 8.20879 18.1642 8.11299C18.1843 8.01719 18.1816 7.91801 18.1563 7.82344C17.9652 7.10516 17.6794 6.41551 17.3063 5.77266C17.2574 5.68853 17.1896 5.61697 17.1082 5.56366C17.0269 5.51036 16.9342 5.47679 16.8375 5.46562L14.9844 5.25937C14.9073 5.17812 14.8292 5.1 14.75 5.025L14.5313 3.16719C14.52 3.07048 14.4863 2.97773 14.4329 2.89635C14.3795 2.81497 14.3077 2.7472 14.2235 2.69844C13.5804 2.32605 12.8908 2.0405 12.1727 1.84922C12.0781 1.82406 11.9788 1.82149 11.883 1.84171C11.7872 1.86193 11.6975 1.90437 11.6211 1.96562L10.1688 3.125C10.0563 3.125 9.94379 3.125 9.83129 3.125L8.37504 1.96172C8.29858 1.9006 8.20883 1.85829 8.11303 1.83821C8.01722 1.81813 7.91804 1.82083 7.82347 1.84609C7.10531 2.03752 6.4157 2.32335 5.77269 2.69609C5.68857 2.74494 5.617 2.81275 5.5637 2.89413C5.5104 2.97551 5.47683 3.06821 5.46566 3.16484L5.25941 5.02109C5.17816 5.0987 5.10004 5.17682 5.02504 5.25547L3.16722 5.46875C3.07051 5.48 2.97777 5.51369 2.89639 5.56713C2.815 5.62057 2.74723 5.69229 2.69847 5.77656C2.32609 6.41966 2.04053 7.10925 1.84925 7.82734C1.8241 7.92197 1.82152 8.02119 1.84174 8.11699C1.86196 8.2128 1.90441 8.30251 1.96566 8.37891L3.12504 9.83125C3.12504 9.94375 3.12504 10.0563 3.12504 10.1688L1.96175 11.625C1.90064 11.7015 1.85833 11.7912 1.83825 11.887C1.81816 11.9828 1.82086 12.082 1.84613 12.1766C2.03721 12.8948 2.32306 13.5845 2.69613 14.2273C2.74498 14.3115 2.81279 14.383 2.89417 14.4363C2.97555 14.4896 3.06824 14.5232 3.16488 14.5344L5.01801 14.7406C5.09561 14.8219 5.17373 14.9 5.25238 14.975L5.46879 16.8328C5.48004 16.9295 5.51373 17.0223 5.56717 17.1036C5.62061 17.185 5.69233 17.2528 5.7766 17.3016C6.4197 17.6739 7.10929 17.9595 7.82738 18.1508C7.92201 18.1759 8.02122 18.1785 8.11703 18.1583C8.21284 18.1381 8.30255 18.0956 8.37894 18.0344L9.83129 16.875C9.94379 16.8781 10.0563 16.8781 10.1688 16.875L11.625 18.0406C11.7015 18.1017 11.7912 18.144 11.887 18.1641C11.9828 18.1842 12.082 18.1815 12.1766 18.1562C12.8949 17.9652 13.5845 17.6793 14.2274 17.3063C14.3115 17.2574 14.3831 17.1896 14.4364 17.1082C14.4897 17.0268 14.5232 16.9341 14.5344 16.8375L14.7407 14.9844C14.8219 14.9073 14.9 14.8292 14.975 14.75L16.8329 14.5313C16.9296 14.52 17.0223 14.4863 17.1037 14.4329C17.1851 14.3794 17.2528 14.3077 17.3016 14.2234C17.674 13.5803 17.9595 12.8907 18.1508 12.1727C18.176 12.078 18.1786 11.9788 18.1583 11.883C18.1381 11.7872 18.0957 11.6975 18.0344 11.6211L16.875 10.1688ZM15.6172 9.66094C15.6305 9.88678 15.6305 10.1132 15.6172 10.3391C15.6079 10.4937 15.6564 10.6463 15.7532 10.7672L16.8618 12.1523C16.7345 12.5566 16.5717 12.9488 16.375 13.3242L14.6094 13.5242C14.4557 13.5413 14.3137 13.6148 14.211 13.7305C14.0606 13.8996 13.9004 14.0598 13.7313 14.2102C13.6156 14.3129 13.5421 14.4548 13.525 14.6086L13.3289 16.3727C12.9536 16.5694 12.5614 16.7323 12.1571 16.8594L10.7711 15.7508C10.6602 15.6622 10.5225 15.614 10.3805 15.6141H10.343C10.1172 15.6273 9.89073 15.6273 9.66488 15.6141C9.51026 15.6048 9.35769 15.6532 9.23676 15.75L7.84769 16.8594C7.44342 16.7322 7.05125 16.5693 6.67582 16.3727L6.47582 14.6094C6.45875 14.4556 6.38526 14.3136 6.26957 14.2109C6.10043 14.0606 5.94026 13.9004 5.78988 13.7312C5.68717 13.6156 5.5452 13.5421 5.39144 13.525L3.62738 13.3281C3.43065 12.9527 3.26777 12.5606 3.14066 12.1563L4.24925 10.7703C4.34606 10.6494 4.3945 10.4968 4.38519 10.3422C4.37191 10.1163 4.37191 9.88991 4.38519 9.66406C4.3945 9.50944 4.34606 9.35687 4.24925 9.23594L3.14066 7.84766C3.26787 7.44339 3.43075 7.05122 3.62738 6.67578L5.39066 6.47578C5.54442 6.45871 5.68639 6.38522 5.7891 6.26953C5.93948 6.1004 6.09965 5.94023 6.26879 5.78984C6.38494 5.68707 6.45873 5.54478 6.47582 5.39062L6.67191 3.62734C7.0473 3.43062 7.43948 3.26773 7.84379 3.14062L9.22972 4.24922C9.35066 4.34602 9.50323 4.39446 9.65785 4.38516C9.8837 4.37188 10.1101 4.37188 10.336 4.38516C10.4906 4.39446 10.6432 4.34602 10.7641 4.24922L12.1524 3.14062C12.5567 3.26783 12.9488 3.43071 13.3243 3.62734L13.5243 5.39062C13.5413 5.54439 13.6148 5.68635 13.7305 5.78906C13.8996 5.93945 14.0598 6.09962 14.2102 6.26875C14.3129 6.38444 14.4549 6.45793 14.6086 6.475L16.3727 6.67109C16.5694 7.04649 16.7323 7.43866 16.8594 7.84297L15.7508 9.22891C15.6531 9.35086 15.6046 9.505 15.6149 9.66094H15.6172Z" fill="#5E718D"/>
</svg>
